<svg width="32" height="32" viewBox="0 0 24 24" fill="none" xmlns="http://www.w3.org/2000/svg">
<path d="M49.9999 15.9987L80.3067 16.8556C85.6618 17.007 90.091 21.0722 90.7 26.3947C92.048 38.1765 92.048 50.0735 90.7 61.8552C90.091 67.1777 85.6618 71.2429 80.3067 71.3943L57.2917 72.0451V80.5833H70.8333C72.5592 80.5833 73.9583 81.9824 73.9583 83.7083C73.9583 85.4342 72.5592 86.8333 70.8333 86.8333H29.1667C27.4408 86.8333 26.0417 85.4342 26.0417 83.7083C26.0417 81.9824 27.4408 80.5833 29.1667 80.5833H42.7083V72.0451L19.6931 71.3943C14.3381 71.2429 9.90882 67.1777 9.29984 61.8552C7.95181 50.0735 7.95181 38.1765 9.29984 26.3947C9.90882 21.0722 14.3381 17.007 19.6931 16.8556L49.9999 15.9987ZM49.9999 22.2512L19.8698 23.1031C17.6231 23.1666 15.7648 24.8722 15.5093 27.1052C14.2153 38.4148 14.2153 49.8351 15.5093 61.1447C15.7648 63.3778 17.6231 65.0833 19.8698 65.1468L49.9999 65.9987L80.1301 65.1468C82.3768 65.0833 84.235 63.3778 84.4905 61.1447C85.7845 49.8351 85.7845 38.4148 84.4905 27.1052C84.235 24.8722 82.3768 23.1666 80.1301 23.1031L49.9999 22.2512Z" fill="#74818A"/>
</svg>
